inDegrees=yes
name=ik_lifting_orientations
DataType=double
version=3
OpenSimVersion=4.5-2024-01-10-34fd6af
endheader
time	pelvis_tilt	pelvis_list	pelvis_rotation	pelvis_tx	pelvis_ty	pelvis_tz	hip_flexion_r	hip_adduction_r	hip_rotation_r	knee_angle_r	knee_angle_r_beta	ankle_angle_r	subtalar_angle_r	mtp_angle_r	hip_flexion_l	hip_adduction_l	hip_rotation_l	knee_angle_l	knee_angle_l_beta	ankle_angle_l	subtalar_angle_l	mtp_angle_l	lumbar_extension	lumbar_bending	lumbar_rotation	arm_flex_r	arm_add_r	arm_rot_r	elbow_flex_r	pro_sup_r	wrist_flex_r	wrist_dev_r	arm_flex_l	arm_add_l	arm_rot_l	elbow_flex_l	pro_sup_l	wrist_flex_l	wrist_dev_l
0.02	0.001032105778734123	-0.007197318597958054	-90.02493780592249	0	0.9399999998679526	0	45.38325346071873	-11.43680763232805	0	60.87205744276103	1.0624178248393	-5.620090637516405	0	0	45.38325346071873	-11.43680763232805	0	60.87205744276103	1.0624178248393	-5.620090637516405	0	0	-0.009092799797501272	-7.89290034244163e-05	0.001714653983704305	-0.2297345551014981	-0.05152556208299463	-0.005118639511421208	0.4892041032071388	1.233693820783968	0	0	0	-10.14387096421852	0	88.8047853375072	1.233693820783968	0	0
0.03	0.01823121067256545	0.04110270576421698	-90.01644513125132	0	0.9399999998679526	0	45.37501325883107	-11.34423462342253	0	60.85718066984657	1.062158176169871	-5.570981220480751	0	0	45.37501325883107	-11.34423462342253	0	60.85718066984657	1.062158176169871	-5.570981220480751	0	0	0.03147543409882379	-0.01627492266553167	0.02833794153056233	-0.3003699384921603	-0.06621623646176618	-0.0404441293565795	0.6372529220043641	1.21486647781628	0	0	0	-10.19913966791964	0	88.82302263632087	1.21486647781628	0	0
0.04	0.01370910889260949	0.04389201145632635	-89.95542313575567	0	0.9399999998679526	0	45.35939207893639	-11.17221575171185	0	60.82892964569835	1.061665102781424	-5.480519050779487	0	0	45.35939207893639	-11.17221575171185	0	60.82892964569835	1.061665102781424	-5.480519050779487	0	0	0.04306151665765438	-0.02132386012062454	-0.003199267129232996	-0.2984303816127141	-0.05830875003966905	-0.07486059335412305	0.6246795404569312	1.179089261779625	0	0	0	-10.30431559763669	0	88.85767860741217	1.179089261779625	0	0
0.05	0.02991541554435142	-0.01050872069299177	-90.03202133029305	0	0.9399999998679526	0	45.35167430909211	-11.09347645229779	0	60.81486748507305	1.061419671778568	-5.440260266747865	0	0	45.35167430909211	-11.09347645229779	0	60.81486748507305	1.061419671778568	-5.440260266747865	0	0	-0.01695616468295024	-0.03075937619242401	0.06465560835484394	-0.2479532354985654	-0.03186221548608147	-0.0560090265416728	0.528237519397031	1.161228984327346	0	0	0	-10.35715234147072	0	88.87497916112214	1.161228984327346	0	0
0.06	0.04595716714809203	0.003652778161848707	-90.19605024432526	0	0.9399999998679526	0	45.33678762541929	-10.95169604682987	0	60.7875692664111	1.060943227982988	-5.369650232080901	0	0	45.33678762541929	-10.95169604682987	0	60.7875692664111	1.060943227982988	-5.369650232080901	0	0	0.003590283699582186	-0.04373361209340983	0.2338302132788063	-0.2314018612414894	-0.01448144347341038	-0.07355932977103068	0.4867485270148791	1.126463711416247	0	0	0	-10.46056698785895	0	88.90865494167775	1.126463711416247	0	0
0.07000000000000001	-0.02421700462816992	-0.002097399290694168	-89.66658280871474	0	0.9399999998679526	0	45.33672722170466	-10.95111391991674	0	60.78745621419804	1.060941254849643	-5.369356830963567	0	0	45.33672722170466	-10.95111391991674	0	60.78745621419804	1.060941254849643	-5.369356830963567	0	0	0.00662163932809412	0.02000864277286362	-0.2071092539547165	-0.2424207441340391	0.006488121044940563	-0.1718723892462427	0.4939514807021452	1.126322052007415	0	0	0	-10.46099040217065	0	88.9087921617003	1.126322052007415	0	0
0.08	0.001272242355613577	0.00277048368625399	-89.88770363266175	0	0.9399999998679526	0	45.33668071984104	-10.95066394196793	0	60.78736948089939	1.060939741068011	-5.369129876321455	0	0	45.33668071984104	-10.95066394196793	0	60.78736948089939	1.060939741068011	-5.369129876321455	0	0	0.007976799991487649	0.008234816663962962	-0.04100014078115096	-0.2530751285300336	-0.01173036109190696	-0.1350080315302393	0.4908316618581626	1.126213138069661	0	0	0	-10.46131558171645	0	88.90889766243829	1.126213138069661	0	0
